<mxfile host="app.diagrams.net" modified="2021-11-15T14:57:52.050Z" agent="5.0 (Macintosh; Intel Mac OS X 10_15_7) AppleWebKit/537.36 (KHTML, like Gecko) Chrome/95.0.4638.69 Safari/537.36" etag="CjxlYebNPjw5k86U0Udt" version="15.7.4" type="github">
  <diagram id="C5RBs43oDa-KdzZeNtuy" name="Page-1">
    <mxGraphModel dx="946" dy="589" grid="1" gridSize="10" guides="1" tooltips="1" connect="1" arrows="1" fold="1" page="1" pageScale="1" pageWidth="827" pageHeight="1169" math="0" shadow="0">
      <root>
        <mxCell id="WIyWlLk6GJQsqaUBKTNV-0" />
        <mxCell id="WIyWlLk6GJQsqaUBKTNV-1" parent="WIyWlLk6GJQsqaUBKTNV-0" />
        <mxCell id="zkfFHV4jXpPFQw0GAbJ--0" value="Customer " style="swimlane;fontStyle=3;align=center;verticalAlign=top;childLayout=stackLayout;horizontal=1;startSize=26;horizontalStack=0;resizeParent=1;resizeLast=0;collapsible=1;marginBottom=0;rounded=0;shadow=0;strokeWidth=1;" parent="WIyWlLk6GJQsqaUBKTNV-1" vertex="1">
          <mxGeometry x="300" y="340" width="200" height="180" as="geometry">
            <mxRectangle x="230" y="140" width="160" height="26" as="alternateBounds" />
          </mxGeometry>
        </mxCell>
        <mxCell id="zkfFHV4jXpPFQw0GAbJ--1" value="+ custID: int&#xa;+ custName: String&#xa;+ custPhone: long&#xa;+ custStreet: String&#xa;+ custCity: String&#xa;+ custState: String" style="text;align=left;verticalAlign=top;spacingLeft=4;spacingRight=4;overflow=hidden;rotatable=0;points=[[0,0.5],[1,0.5]];portConstraint=eastwest;" parent="zkfFHV4jXpPFQw0GAbJ--0" vertex="1">
          <mxGeometry y="26" width="200" height="94" as="geometry" />
        </mxCell>
        <mxCell id="f0JyawcrjxxwBRvFhbp1-1" value="+ getCustomerInfo(vendorID)&#xa;+ transaction(custiD)" style="text;whiteSpace=wrap;html=1;" vertex="1" parent="zkfFHV4jXpPFQw0GAbJ--0">
          <mxGeometry y="120" width="200" height="40" as="geometry" />
        </mxCell>
        <mxCell id="f0JyawcrjxxwBRvFhbp1-2" value="" style="endArrow=none;html=1;rounded=0;exitX=-0.011;exitY=1.011;exitDx=0;exitDy=0;entryX=1;entryY=0;entryDx=0;entryDy=0;exitPerimeter=0;" edge="1" parent="zkfFHV4jXpPFQw0GAbJ--0" source="zkfFHV4jXpPFQw0GAbJ--1" target="f0JyawcrjxxwBRvFhbp1-1">
          <mxGeometry width="50" height="50" relative="1" as="geometry">
            <mxPoint x="170" y="240" as="sourcePoint" />
            <mxPoint x="220" y="190" as="targetPoint" />
            <Array as="points" />
          </mxGeometry>
        </mxCell>
        <mxCell id="f0JyawcrjxxwBRvFhbp1-4" value="Admin" style="swimlane;" vertex="1" parent="WIyWlLk6GJQsqaUBKTNV-1">
          <mxGeometry x="550" y="80" width="200" height="200" as="geometry" />
        </mxCell>
        <mxCell id="f0JyawcrjxxwBRvFhbp1-7" value="&lt;div&gt;&amp;nbsp; &amp;nbsp; &amp;nbsp; &amp;nbsp; &amp;nbsp; + paymentStatus: boolean&lt;/div&gt;&lt;div&gt;&amp;nbsp;&lt;/div&gt;&lt;div&gt;&lt;span&gt;&amp;nbsp; &amp;nbsp; + dateofPurchase: date&lt;/span&gt;&lt;/div&gt;&lt;div&gt;&lt;span&gt;&lt;br&gt;&lt;/span&gt;&lt;/div&gt;&lt;div&gt;&lt;span&gt;&amp;nbsp;+ stockininventory: int&lt;/span&gt;&lt;/div&gt;" style="text;html=1;align=center;verticalAlign=middle;resizable=0;points=[];autosize=1;strokeColor=none;fillColor=none;" vertex="1" parent="f0JyawcrjxxwBRvFhbp1-4">
          <mxGeometry x="-15" y="35" width="190" height="80" as="geometry" />
        </mxCell>
        <mxCell id="f0JyawcrjxxwBRvFhbp1-8" value="+ reorder(stockininventory)&lt;br&gt;+ updatePayment()" style="text;whiteSpace=wrap;html=1;" vertex="1" parent="f0JyawcrjxxwBRvFhbp1-4">
          <mxGeometry x="20" y="140" width="170" height="40" as="geometry" />
        </mxCell>
        <mxCell id="f0JyawcrjxxwBRvFhbp1-5" value="" style="endArrow=none;html=1;rounded=0;" edge="1" parent="WIyWlLk6GJQsqaUBKTNV-1">
          <mxGeometry width="50" height="50" relative="1" as="geometry">
            <mxPoint x="750" y="200" as="sourcePoint" />
            <mxPoint x="550" y="200" as="targetPoint" />
          </mxGeometry>
        </mxCell>
        <mxCell id="f0JyawcrjxxwBRvFhbp1-6" value="" style="shape=flexArrow;endArrow=classic;startArrow=classic;html=1;rounded=0;startWidth=18;startSize=13.09;" edge="1" parent="WIyWlLk6GJQsqaUBKTNV-1">
          <mxGeometry width="100" height="100" relative="1" as="geometry">
            <mxPoint x="500" y="430" as="sourcePoint" />
            <mxPoint x="670" y="280" as="targetPoint" />
            <Array as="points">
              <mxPoint x="670" y="430" />
            </Array>
          </mxGeometry>
        </mxCell>
        <mxCell id="f0JyawcrjxxwBRvFhbp1-9" value="Classname" style="swimlane;fontStyle=1;align=center;verticalAlign=top;childLayout=stackLayout;horizontal=1;startSize=26;horizontalStack=0;resizeParent=1;resizeParentMax=0;resizeLast=0;collapsible=1;marginBottom=0;" vertex="1" parent="WIyWlLk6GJQsqaUBKTNV-1">
          <mxGeometry x="20" y="80" width="250" height="190" as="geometry" />
        </mxCell>
        <mxCell id="f0JyawcrjxxwBRvFhbp1-10" value="+ productiD: int&#xa;+ name: String&#xa;+,category: String&#xa;+sales: int&#xa;+price: double&#xa;+cost: double&#xa;+ quantity: int&#xa;+ status: boolean" style="text;strokeColor=none;fillColor=none;align=left;verticalAlign=top;spacingLeft=4;spacingRight=4;overflow=hidden;rotatable=0;points=[[0,0.5],[1,0.5]];portConstraint=eastwest;" vertex="1" parent="f0JyawcrjxxwBRvFhbp1-9">
          <mxGeometry y="26" width="250" height="124" as="geometry" />
        </mxCell>
        <mxCell id="f0JyawcrjxxwBRvFhbp1-12" value="+ change Status(productID, status, quantity)&#xa;+ profitLoss(productID, price, cost)" style="text;strokeColor=none;fillColor=none;align=left;verticalAlign=top;spacingLeft=4;spacingRight=4;overflow=hidden;rotatable=0;points=[[0,0.5],[1,0.5]];portConstraint=eastwest;" vertex="1" parent="f0JyawcrjxxwBRvFhbp1-9">
          <mxGeometry y="150" width="250" height="40" as="geometry" />
        </mxCell>
        <mxCell id="f0JyawcrjxxwBRvFhbp1-14" value="" style="endArrow=none;html=1;rounded=0;entryX=1;entryY=-0.025;entryDx=0;entryDy=0;entryPerimeter=0;" edge="1" parent="f0JyawcrjxxwBRvFhbp1-9" target="f0JyawcrjxxwBRvFhbp1-12">
          <mxGeometry width="50" height="50" relative="1" as="geometry">
            <mxPoint y="149" as="sourcePoint" />
            <mxPoint x="270" y="170" as="targetPoint" />
          </mxGeometry>
        </mxCell>
        <mxCell id="f0JyawcrjxxwBRvFhbp1-16" value="" style="endArrow=classic;startArrow=classic;html=1;rounded=0;entryX=1.008;entryY=0.75;entryDx=0;entryDy=0;exitX=0.5;exitY=0;exitDx=0;exitDy=0;entryPerimeter=0;" edge="1" parent="WIyWlLk6GJQsqaUBKTNV-1" source="zkfFHV4jXpPFQw0GAbJ--0" target="f0JyawcrjxxwBRvFhbp1-10">
          <mxGeometry width="50" height="50" relative="1" as="geometry">
            <mxPoint x="390" y="400" as="sourcePoint" />
            <mxPoint x="440" y="350" as="targetPoint" />
            <Array as="points">
              <mxPoint x="400" y="200" />
            </Array>
          </mxGeometry>
        </mxCell>
        <mxCell id="f0JyawcrjxxwBRvFhbp1-22" value="Vendor" style="swimlane;fontStyle=1;childLayout=stackLayout;horizontal=1;startSize=26;fillColor=none;horizontalStack=0;resizeParent=1;resizeParentMax=0;resizeLast=0;collapsible=1;marginBottom=0;" vertex="1" parent="WIyWlLk6GJQsqaUBKTNV-1">
          <mxGeometry x="20" y="570" width="300" height="190" as="geometry" />
        </mxCell>
        <mxCell id="f0JyawcrjxxwBRvFhbp1-23" value="+ vendorID: int&#xa;+ vendorName: String&#xa;+ vendorPhone: long.&#xa;+ vendorStreet: String&#xa;+ vendorCity: String&#xa;+ vendorState: String &#xa; &#xa;&#xa;+ getVendorInfo(vendorID)&#xa;+ creditOwned(productiD, productName)&#xa;+ productSold(vendorID, productName)" style="text;strokeColor=none;fillColor=none;align=left;verticalAlign=top;spacingLeft=4;spacingRight=4;overflow=hidden;rotatable=0;points=[[0,0.5],[1,0.5]];portConstraint=eastwest;" vertex="1" parent="f0JyawcrjxxwBRvFhbp1-22">
          <mxGeometry y="26" width="300" height="164" as="geometry" />
        </mxCell>
        <mxCell id="f0JyawcrjxxwBRvFhbp1-40" value="" style="endArrow=none;html=1;rounded=0;exitX=0;exitY=0.652;exitDx=0;exitDy=0;exitPerimeter=0;" edge="1" parent="f0JyawcrjxxwBRvFhbp1-22" source="f0JyawcrjxxwBRvFhbp1-23">
          <mxGeometry width="50" height="50" relative="1" as="geometry">
            <mxPoint x="370" y="10" as="sourcePoint" />
            <mxPoint x="300" y="133" as="targetPoint" />
          </mxGeometry>
        </mxCell>
        <mxCell id="f0JyawcrjxxwBRvFhbp1-41" value="" style="endArrow=classic;startArrow=classic;html=1;rounded=0;entryX=0.536;entryY=1.1;entryDx=0;entryDy=0;entryPerimeter=0;exitX=0.45;exitY=-0.021;exitDx=0;exitDy=0;exitPerimeter=0;" edge="1" parent="WIyWlLk6GJQsqaUBKTNV-1" source="f0JyawcrjxxwBRvFhbp1-22" target="f0JyawcrjxxwBRvFhbp1-12">
          <mxGeometry width="50" height="50" relative="1" as="geometry">
            <mxPoint x="390" y="550" as="sourcePoint" />
            <mxPoint x="190" y="350" as="targetPoint" />
          </mxGeometry>
        </mxCell>
        <mxCell id="f0JyawcrjxxwBRvFhbp1-42" value="" style="curved=1;endArrow=classic;html=1;rounded=0;entryX=-0.015;entryY=0.745;entryDx=0;entryDy=0;entryPerimeter=0;exitX=0.603;exitY=0.005;exitDx=0;exitDy=0;exitPerimeter=0;" edge="1" parent="WIyWlLk6GJQsqaUBKTNV-1" source="f0JyawcrjxxwBRvFhbp1-22" target="zkfFHV4jXpPFQw0GAbJ--1">
          <mxGeometry width="50" height="50" relative="1" as="geometry">
            <mxPoint x="200" y="530" as="sourcePoint" />
            <mxPoint x="440" y="520" as="targetPoint" />
            <Array as="points">
              <mxPoint x="280" y="510" />
              <mxPoint x="200" y="436" />
            </Array>
          </mxGeometry>
        </mxCell>
      </root>
    </mxGraphModel>
  </diagram>
</mxfile>
